<?xml version="1.0" standalone="no"?>
<!DOCTYPE svg PUBLIC "-//W3C//DTD SVG 20010904//EN"
 "http://www.w3.org/TR/2001/REC-SVG-20010904/DTD/svg10.dtd">
<svg version="1.0" xmlns="http://www.w3.org/2000/svg"
 width="1920.000000pt" height="1920.000000pt" viewBox="0 0 1920.000000 1920.000000"
 preserveAspectRatio="xMidYMid meet">
<metadata>
Created by potrace 1.11, written by Peter Selinger 2001-2013
</metadata>
<g transform="translate(0.000000,1920.000000) scale(0.100000,-0.100000)"
fill="#000000" stroke="none">
<path d="M4847 14213 c-4 -3 -7 -685 -7 -1515 l0 -1508 1510 0 1510 0 -2 1513
-3 1512 -1501 3 c-825 1 -1504 -1 -1507 -5z"/>
<path d="M8147 14213 c-7 -7 -10 -3017 -3 -3024 2 -2 684 -3 1515 -1 l1511 2
-2 1513 -3 1512 -1506 3 c-828 1 -1509 -1 -1512 -5z"/>
<path d="M1540 12700 l0 -1510 1510 0 1510 0 0 1510 0 1510 -1510 0 -1510 0 0
-1510z"/>
<path d="M11445 14198 c-3 -7 -4 -686 -3 -1508 l3 -1495 1513 -3 1512 -2 0
1510 0 1510 -1510 0 c-1199 0 -1512 -3 -1515 -12z"/>
<path d="M15855 13731 l-670 -97 -3 -921 c-2 -797 0 -922 12 -926 8 -3 100
-18 203 -32 103 -15 413 -62 688 -106 275 -44 503 -79 508 -79 4 0 7 509 7
1130 l0 1130 -37 -1 c-21 -1 -339 -45 -708 -98z m245 -1029 l0 -397 -44 3
c-40 4 -45 7 -59 40 -8 21 -53 129 -99 242 -47 113 -93 235 -103 273 -17 62
-23 71 -42 65 -5 -2 -6 -137 -4 -300 l3 -298 -36 0 -36 0 0 374 0 374 48 4
c26 3 47 4 48 4 0 -1 37 -84 81 -186 78 -179 105 -249 135 -355 8 -27 20 -51
28 -53 13 -2 15 40 12 303 l-3 305 35 0 36 0 0 -398z"/>
<path d="M16620 13480 l0 -130 193 0 192 0 0 -30 0 -30 -192 0 -193 0 0 -95 0
-95 193 0 192 0 0 -30 0 -30 -192 0 -193 0 0 -95 0 -95 193 0 192 0 0 -30 0
-30 -192 0 -193 0 0 -95 0 -95 193 0 194 0 -5 -30 -4 -30 -189 0 -189 0 0 -95
0 -95 193 0 192 0 0 -30 0 -30 -193 0 -193 0 3 -92 3 -93 191 -3 190 -2 -4
-31 -4 -30 -187 1 -186 2 -3 -126 -3 -126 316 0 315 0 0 585 0 585 100 0 100
0 -2 268 -3 267 -97 3 -98 3 0 54 0 55 -315 0 -315 0 0 -130z"/>
<path d="M17280 12675 l0 -265 75 0 75 0 0 265 0 265 -75 0 -75 0 0 -265z"/>
<path d="M17280 12135 l0 -265 75 0 75 0 0 265 0 265 -75 0 -75 0 0 -265z"/>
<path d="M14777 10953 c-4 -3 -7 -685 -7 -1515 l0 -1508 1515 0 1515 0 0 1499
c0 825 -3 1506 -6 1515 -6 15 -148 16 -1508 16 -827 0 -1506 -3 -1509 -7z"/>
<path d="M1530 7805 l0 -3145 3150 0 3150 0 0 3145 0 3145 -3150 0 -3150 0 0
-3145z"/>
<path d="M8150 7805 l0 -3145 3145 0 3145 0 0 3145 0 3145 -3145 0 -3145 0 0
-3145z"/>
<path d="M14770 6180 l0 -1510 1510 0 1510 0 0 1510 0 1510 -1510 0 -1510 0 0
-1510z"/>
</g>
</svg>
